{"title":"Dragon Ball &amp; Dr Slump Movie TV Special (1997) [DVDRip.XviD]","uid":9909502,"size":2338514398,"categoryP":"video","categoryS":"tv_shows","magnet":"?xt=urn:btih:201297c83f6d331db56b4b214ac83ea1c75634fc&amp;dn=Dragon+Ball+%26amp%3B+Dr+Slump+Movie+TV+Special+%281997%29+%5BDVDRip.XviD%5D&amp;tr=udp%3A%2F%2Ftracker.openbittorrent.com%3A80&amp;tr=udp%3A%2F%2Fopen.demonii.com%3A1337&amp;tr=udp%3A%2F%2Ftracker.coppersurfer.tk%3A6969&amp;tr=udp%3A%2F%2Fexodus.desync.com%3A6969","seeders":1,"leechers":5,"uploader":"RMX777","files":-1,"time":1396866666,"description":"All episode Dr. Slump 2 (04,55,56,57,58,59) where Goku in one film !!\nNew Opening and ending\n\nScren: &lt;a href=&quot;\nhttp://s6.ifotos.pl/img/jjjdsdfgh_errhhxn.jpg&quot; rel=&quot;nofollow&quot; target=&quot;_NEW&quot;&gt;\nhttp://s6.ifotos.pl/img/jjjdsdfgh_errhhxn.jpg&lt;/a&gt;\n\nOriginal Japanese version:\nVideo\nCodec ID                                 : WMV3\nDuration                                 : 1h 23mn\nBit rate mode                            : Constant\nBit rate                                 : 3 741 Kbps\nWidth                                    : 768 pixels\nHeight                                   : 576 pixels\nDisplay aspect ratio                     : 4:3\nFrame rate                               : 25.000 fps\nStream size                              : 2.18 GiB\nLanguage                                 : Japanese\nAudio\nFormat                                   : WMA\nFormat version                           : Version 2\nDuration                                 : 1h 23mn\nBit rate mode                            : Constant\nBit rate                                 : 320 Kbps\nChannel(s)                               : 2 channels\nSampling rate                            : 44.1 KHz\nBit depth                                : 16 bits\nStream size                              : 191 MiB (13%)\n\nBonus. German version","torrent":{"xt":"urn:btih:201297c83f6d331db56b4b214ac83ea1c75634fc","amp;dn":"Dragon+Ball+%26amp%3B+Dr+Slump+Movie+TV+Special+%281997%29+%5BDVDRip.XviD%5D","amp;tr":["udp%3A%2F%2Ftracker.openbittorrent.com%3A80","udp%3A%2F%2Fopen.demonii.com%3A1337","udp%3A%2F%2Ftracker.coppersurfer.tk%3A6969","udp%3A%2F%2Fexodus.desync.com%3A6969"],"infoHash":"201297c83f6d331db56b4b214ac83ea1c75634fc","infoHashBuffer":{"type":"Buffer","data":[32,18,151,200,63,109,51,29,181,107,75,33,74,200,62,161,199,86,52,252]},"announce":[],"urlList":[]}}